# xmcd
#
# Track frame offsets:
#	150
#	13582
#	27972
#	39950
#	53800
#	66507
#	79525
#	93630
#	108515
#	123545
#
# Disc length: 1813 seconds
#
# Revision: 1
# Processed by: cddbd v1.5.2PL0 Copyright (c) Steve Scherf et al.
# Submitted via: EZCDAudioConverter 3.1.2.1
#
DISCID=7e07130a
DTITLE=Frank Sinatra - Super Hits
DYEAR=2000
DGENRE=Pop Vocals
TTITLE0=Begin the Beguine
TTITLE1=Nancy (With the Laughing Face)
TTITLE2=The Coffee Song (They've Got An Awful Lot of Coffee in Brazil)
TTITLE3=One for My Baby(And One More for the Road)
TTITLE4=Dream (When You're Feeling Blue)
TTITLE5=Saturday Night (Is the Loneliest Night in the Week)
TTITLE6=Home on the Range
TTITLE7=Nature Boy
TTITLE8=Sunshine Cake
TTITLE9=Castle Rock
EXTD=
EXTT0=
EXTT1=
EXTT2=
EXTT3=
EXTT4=
EXTT5=
EXTT6=
EXTT7=
EXTT8=
EXTT9=
PLAYORDER=
